<svg xmlns="http://www.w3.org/2000/svg" viewBox="0 0 760 470" width="100%" role="img">
    <title>Prarthana's living repo aquarium</title>
    <desc>Public repositories appear as animated jelly creatures. Size reflects stars and glow reflects recent activity.</desc>
    <defs>
      <linearGradient id="water" x1="0" y1="0" x2="0" y2="1">
        <stop offset="0%" stop-color="#24152d"/>
        <stop offset="45%" stop-color="#1b2038"/>
        <stop offset="100%" stop-color="#101d2d"/>
      </linearGradient>
      <radialGradient id="pearl">
        <stop offset="0%" stop-color="#fff7fc"/>
        <stop offset="55%" stop-color="#f6b8db"/>
        <stop offset="100%" stop-color="#b971b0"/>
      </radialGradient>
    </defs>
    <rect width="760" height="470" rx="22" fill="url(#water)"/>
    <circle cx="80" cy="70" r="45" fill="#ff8fc7" opacity="0.05"/>
    <circle cx="700" cy="110" r="70" fill="#c9a7ff" opacity="0.04"/>
    <circle cx="70" cy="430" r="2" fill="#fff" opacity="0.22">
          <animate attributeName="cy" values="430;30" dur="8s" begin="-0.0s" repeatCount="indefinite"/>
          <animate attributeName="opacity" values="0;0.3;0" dur="8s" begin="-0.0s" repeatCount="indefinite"/>
        </circle><circle cx="180" cy="430" r="3" fill="#fff" opacity="0.22">
          <animate attributeName="cy" values="430;30" dur="9s" begin="-0.7s" repeatCount="indefinite"/>
          <animate attributeName="opacity" values="0;0.3;0" dur="9s" begin="-0.7s" repeatCount="indefinite"/>
        </circle><circle cx="280" cy="430" r="4" fill="#fff" opacity="0.22">
          <animate attributeName="cy" values="430;30" dur="10s" begin="-1.4s" repeatCount="indefinite"/>
          <animate attributeName="opacity" values="0;0.3;0" dur="10s" begin="-1.4s" repeatCount="indefinite"/>
        </circle><circle cx="515" cy="430" r="2" fill="#fff" opacity="0.22">
          <animate attributeName="cy" values="430;30" dur="11s" begin="-2.0999999999999996s" repeatCount="indefinite"/>
          <animate attributeName="opacity" values="0;0.3;0" dur="11s" begin="-2.0999999999999996s" repeatCount="indefinite"/>
        </circle><circle cx="630" cy="430" r="3" fill="#fff" opacity="0.22">
          <animate attributeName="cy" values="430;30" dur="12s" begin="-0.0s" repeatCount="indefinite"/>
          <animate attributeName="opacity" values="0;0.3;0" dur="12s" begin="-0.0s" repeatCount="indefinite"/>
        </circle><circle cx="715" cy="430" r="4" fill="#fff" opacity="0.22">
          <animate attributeName="cy" values="430;30" dur="13s" begin="-0.7s" repeatCount="indefinite"/>
          <animate attributeName="opacity" values="0;0.3;0" dur="13s" begin="-0.7s" repeatCount="indefinite"/>
        </circle><g transform="translate(405,255)">
      <circle r="35" fill="#f8b7da" opacity="0.10">
        <animate attributeName="r" values="32;42;32" dur="4s" repeatCount="indefinite"/>
      </circle>
      <circle r="25" fill="url(#pearl)"/>
      <text x="0" y="4" text-anchor="middle" font-size="18">🎀</text>
      <text x="0" y="48" text-anchor="middle" fill="#ffdff0" font-family="system-ui,sans-serif" font-size="13" font-weight="700">lassya2507</text>
      <text x="0" y="64" text-anchor="middle" fill="#cfa7c5" font-family="system-ui,sans-serif" font-size="10">home · profile reef</text>
    </g><g transform="translate(150,150)">
      <g>
        <animateTransform attributeName="transform" type="translate" values="0,0; 7,-9; 0,0" dur="4.8s" repeatCount="indefinite"/>
        <circle cx="0" cy="0" r="40.3" fill="#ff8fc7" opacity="0.12">
          <animate attributeName="r" values="34.1;48.0;34.1" dur="3.2s" repeatCount="indefinite"/>
          <animate attributeName="opacity" values="0.16;0.03;0.16" dur="3.2s" repeatCount="indefinite"/>
        </circle>
        <g>
          <animateTransform attributeName="transform" type="rotate" values="-3 0 0;3 0 0;-3 0 0" dur="5.5s" repeatCount="indefinite"/>
          <path d="M-17.0,10.8 q5.0,13.9 0,27.9" stroke="#b94d89" stroke-width="3" fill="none" stroke-linecap="round"/><path d="M-5.6,10.8 q-5.0,13.9 0,27.9" stroke="#b94d89" stroke-width="3" fill="none" stroke-linecap="round"/><path d="M5.6,10.8 q5.0,13.9 0,27.9" stroke="#b94d89" stroke-width="3" fill="none" stroke-linecap="round"/><path d="M17.0,10.8 q-5.0,13.9 0,27.9" stroke="#b94d89" stroke-width="3" fill="none" stroke-linecap="round"/>
        </g>
        <ellipse cx="0" cy="0" rx="31.0" ry="24.2" fill="#ff8fc7"/>
        <ellipse cx="0" cy="-4.0" rx="29.4" ry="15.5" fill="#ffd2e9" opacity="0.75"/>
        <circle cx="-8.7" cy="-1.5" r="3.2" fill="#4a3150"/>
        <circle cx="8.7" cy="-1.5" r="3.2" fill="#4a3150"/>
        <circle cx="-7.7" cy="-2.8" r="1.1" fill="white"/>
        <circle cx="9.6" cy="-2.8" r="1.1" fill="white"/>
        <path d="M-5,5.0 Q0,6.5 5,5.0" stroke="#784f70" stroke-width="1.8" fill="none" stroke-linecap="round"/>
      </g>
    </g><text x="150" y="210.0" text-anchor="middle" fill="#fff1f8" font-family="system-ui,sans-serif" font-size="12" font-weight="650">prarthana-portfolio</text>
        <text x="150" y="225.0" text-anchor="middle" fill="#ba9db7" font-family="system-ui,sans-serif" font-size="10">TypeScript · 2d ago</text><g transform="translate(360,130)">
      <g>
        <animateTransform attributeName="transform" type="translate" values="0,0; 7,-9; 0,0" dur="5.5s" repeatCount="indefinite"/>
        
        <g>
          <animateTransform attributeName="transform" type="rotate" values="-3 0 0;3 0 0;-3 0 0" dur="6.3s" repeatCount="indefinite"/>
          <path d="M-15.2,9.7 q5.0,12.5 0,24.9" stroke="#7650b7" stroke-width="3" fill="none" stroke-linecap="round"/><path d="M-5.0,9.7 q-5.0,12.5 0,24.9" stroke="#7650b7" stroke-width="3" fill="none" stroke-linecap="round"/><path d="M5.0,9.7 q5.0,12.5 0,24.9" stroke="#7650b7" stroke-width="3" fill="none" stroke-linecap="round"/><path d="M15.2,9.7 q-5.0,12.5 0,24.9" stroke="#7650b7" stroke-width="3" fill="none" stroke-linecap="round"/>
        </g>
        <ellipse cx="0" cy="0" rx="27.7" ry="21.6" fill="#c9a7ff"/>
        <ellipse cx="0" cy="-3.6" rx="26.3" ry="13.8" fill="#eadcff" opacity="0.75"/>
        <circle cx="-7.8" cy="-1.4" r="3.2" fill="#4a3150"/>
        <circle cx="7.8" cy="-1.4" r="3.2" fill="#4a3150"/>
        <circle cx="-6.9" cy="-2.5" r="1.1" fill="white"/>
        <circle cx="8.6" cy="-2.5" r="1.1" fill="white"/>
        <path d="M-5,4.4 Q0,5.8 5,4.4" stroke="#784f70" stroke-width="1.8" fill="none" stroke-linecap="round"/>
      </g>
    </g><text x="360" y="186.7" text-anchor="middle" fill="#f6efff" font-family="system-ui,sans-serif" font-size="12" font-weight="650">eco-resource-optimization</text>
        <text x="360" y="201.7" text-anchor="middle" fill="#ba9db7" font-family="system-ui,sans-serif" font-size="10">★ 1 · Jupyter Notebook</text><g transform="translate(590,155)">
      <g>
        <animateTransform attributeName="transform" type="translate" values="0,0; 7,-9; 0,0" dur="6.2s" repeatCount="indefinite"/>
        
        <g>
          <animateTransform attributeName="transform" type="rotate" values="-3 0 0;3 0 0;-3 0 0" dur="7.1s" repeatCount="indefinite"/>
          <path d="M-14.7,9.4 q5.0,12.0 0,24.0" stroke="#3d8fb9" stroke-width="3" fill="none" stroke-linecap="round"/><path d="M-4.8,9.4 q-5.0,12.0 0,24.0" stroke="#3d8fb9" stroke-width="3" fill="none" stroke-linecap="round"/><path d="M4.8,9.4 q5.0,12.0 0,24.0" stroke="#3d8fb9" stroke-width="3" fill="none" stroke-linecap="round"/><path d="M14.7,9.4 q-5.0,12.0 0,24.0" stroke="#3d8fb9" stroke-width="3" fill="none" stroke-linecap="round"/>
        </g>
        <ellipse cx="0" cy="0" rx="26.7" ry="20.8" fill="#91d7ff"/>
        <ellipse cx="0" cy="-3.5" rx="25.4" ry="13.4" fill="#d9f3ff" opacity="0.75"/>
        <circle cx="-7.5" cy="-1.3" r="3.2" fill="#4a3150"/>
        <circle cx="7.5" cy="-1.3" r="3.2" fill="#4a3150"/>
        <circle cx="-6.7" cy="-2.4" r="1.1" fill="white"/>
        <circle cx="8.3" cy="-2.4" r="1.1" fill="white"/>
        <path d="M-5,4.3 Q0,5.6 5,4.3" stroke="#784f70" stroke-width="1.8" fill="none" stroke-linecap="round"/>
      </g>
    </g><text x="590" y="210.7" text-anchor="middle" fill="#eefaff" font-family="system-ui,sans-serif" font-size="12" font-weight="650">lung-segmentation</text>
        <text x="590" y="225.7" text-anchor="middle" fill="#ba9db7" font-family="system-ui,sans-serif" font-size="10">★ 1 · Jupyter Notebook</text><g transform="translate(675,285)">
      <g>
        <animateTransform attributeName="transform" type="translate" values="0,0; 7,-9; 0,0" dur="6.9s" repeatCount="indefinite"/>
        
        <g>
          <animateTransform attributeName="transform" type="rotate" values="-3 0 0;3 0 0;-3 0 0" dur="5.5s" repeatCount="indefinite"/>
          <path d="M-11.3,7.2 q5.0,9.3 0,18.5" stroke="#bd6857" stroke-width="3" fill="none" stroke-linecap="round"/><path d="M-3.7,7.2 q-5.0,9.3 0,18.5" stroke="#bd6857" stroke-width="3" fill="none" stroke-linecap="round"/><path d="M3.7,7.2 q5.0,9.3 0,18.5" stroke="#bd6857" stroke-width="3" fill="none" stroke-linecap="round"/><path d="M11.3,7.2 q-5.0,9.3 0,18.5" stroke="#bd6857" stroke-width="3" fill="none" stroke-linecap="round"/>
        </g>
        <ellipse cx="0" cy="0" rx="20.6" ry="16.0" fill="#ffb7a7"/>
        <ellipse cx="0" cy="-2.7" rx="19.5" ry="10.3" fill="#ffe1da" opacity="0.75"/>
        <circle cx="-5.8" cy="-1.0" r="3.2" fill="#4a3150"/>
        <circle cx="5.8" cy="-1.0" r="3.2" fill="#4a3150"/>
        <circle cx="-5.1" cy="-1.9" r="1.1" fill="white"/>
        <circle cx="6.4" cy="-1.9" r="1.1" fill="white"/>
        <path d="M-5,3.3 Q0,4.3 5,3.3" stroke="#784f70" stroke-width="1.8" fill="none" stroke-linecap="round"/>
      </g>
    </g><text x="675" y="334.6" text-anchor="middle" fill="#fff3ef" font-family="system-ui,sans-serif" font-size="12" font-weight="650">leetcode-pattern-journey</text>
        <text x="675" y="349.6" text-anchor="middle" fill="#ba9db7" font-family="system-ui,sans-serif" font-size="10">Python · 40d ago</text><g transform="translate(520,350)">
      <g>
        <animateTransform attributeName="transform" type="translate" values="0,0; 7,-9; 0,0" dur="4.8s" repeatCount="indefinite"/>
        
        <g>
          <animateTransform attributeName="transform" type="rotate" values="-3 0 0;3 0 0;-3 0 0" dur="6.3s" repeatCount="indefinite"/>
          <path d="M-12.0,7.6 q5.0,9.8 0,19.6" stroke="#4a9f88" stroke-width="3" fill="none" stroke-linecap="round"/><path d="M-3.9,7.6 q-5.0,9.8 0,19.6" stroke="#4a9f88" stroke-width="3" fill="none" stroke-linecap="round"/><path d="M3.9,7.6 q5.0,9.8 0,19.6" stroke="#4a9f88" stroke-width="3" fill="none" stroke-linecap="round"/><path d="M12.0,7.6 q-5.0,9.8 0,19.6" stroke="#4a9f88" stroke-width="3" fill="none" stroke-linecap="round"/>
        </g>
        <ellipse cx="0" cy="0" rx="21.7" ry="17.0" fill="#9ee7d2"/>
        <ellipse cx="0" cy="-2.8" rx="20.7" ry="10.9" fill="#dff9f1" opacity="0.75"/>
        <circle cx="-6.1" cy="-1.1" r="3.2" fill="#4a3150"/>
        <circle cx="6.1" cy="-1.1" r="3.2" fill="#4a3150"/>
        <circle cx="-5.4" cy="-2.0" r="1.1" fill="white"/>
        <circle cx="6.7" cy="-2.0" r="1.1" fill="white"/>
        <path d="M-5,3.5 Q0,4.6 5,3.5" stroke="#784f70" stroke-width="1.8" fill="none" stroke-linecap="round"/>
      </g>
    </g><text x="520" y="400.7" text-anchor="middle" fill="#effcf8" font-family="system-ui,sans-serif" font-size="12" font-weight="650">ai-sales-research-copilot</text>
        <text x="520" y="415.7" text-anchor="middle" fill="#ba9db7" font-family="system-ui,sans-serif" font-size="10">Code · 239d ago</text><g transform="translate(310,360)">
      <g>
        <animateTransform attributeName="transform" type="translate" values="0,0; 7,-9; 0,0" dur="5.5s" repeatCount="indefinite"/>
        
        <g>
          <animateTransform attributeName="transform" type="rotate" values="-3 0 0;3 0 0;-3 0 0" dur="7.1s" repeatCount="indefinite"/>
          <path d="M-12.7,8.1 q5.0,10.4 0,20.8" stroke="#b94d89" stroke-width="3" fill="none" stroke-linecap="round"/><path d="M-4.2,8.1 q-5.0,10.4 0,20.8" stroke="#b94d89" stroke-width="3" fill="none" stroke-linecap="round"/><path d="M4.2,8.1 q5.0,10.4 0,20.8" stroke="#b94d89" stroke-width="3" fill="none" stroke-linecap="round"/><path d="M12.7,8.1 q-5.0,10.4 0,20.8" stroke="#b94d89" stroke-width="3" fill="none" stroke-linecap="round"/>
        </g>
        <ellipse cx="0" cy="0" rx="23.1" ry="18.0" fill="#ff8fc7"/>
        <ellipse cx="0" cy="-3.0" rx="21.9" ry="11.5" fill="#ffd2e9" opacity="0.75"/>
        <circle cx="-6.5" cy="-1.2" r="3.2" fill="#4a3150"/>
        <circle cx="6.5" cy="-1.2" r="3.2" fill="#4a3150"/>
        <circle cx="-5.8" cy="-2.1" r="1.1" fill="white"/>
        <circle cx="7.2" cy="-2.1" r="1.1" fill="white"/>
        <path d="M-5,3.7 Q0,4.8 5,3.7" stroke="#784f70" stroke-width="1.8" fill="none" stroke-linecap="round"/>
      </g>
    </g><text x="310" y="412.1" text-anchor="middle" fill="#fff1f8" font-family="system-ui,sans-serif" font-size="12" font-weight="650">skills-introduction-to-githu…</text>
        <text x="310" y="427.1" text-anchor="middle" fill="#ba9db7" font-family="system-ui,sans-serif" font-size="10">Code · 301d ago</text><g transform="translate(120,330)">
      <g>
        <animateTransform attributeName="transform" type="translate" values="0,0; 7,-9; 0,0" dur="6.2s" repeatCount="indefinite"/>
        
        <g>
          <animateTransform attributeName="transform" type="rotate" values="-3 0 0;3 0 0;-3 0 0" dur="5.5s" repeatCount="indefinite"/>
          <path d="M-13.1,8.3 q5.0,10.7 0,21.4" stroke="#7650b7" stroke-width="3" fill="none" stroke-linecap="round"/><path d="M-4.3,8.3 q-5.0,10.7 0,21.4" stroke="#7650b7" stroke-width="3" fill="none" stroke-linecap="round"/><path d="M4.3,8.3 q5.0,10.7 0,21.4" stroke="#7650b7" stroke-width="3" fill="none" stroke-linecap="round"/><path d="M13.1,8.3 q-5.0,10.7 0,21.4" stroke="#7650b7" stroke-width="3" fill="none" stroke-linecap="round"/>
        </g>
        <ellipse cx="0" cy="0" rx="23.7" ry="18.5" fill="#c9a7ff"/>
        <ellipse cx="0" cy="-3.1" rx="22.6" ry="11.9" fill="#eadcff" opacity="0.75"/>
        <circle cx="-6.6" cy="-1.2" r="3.2" fill="#4a3150"/>
        <circle cx="6.6" cy="-1.2" r="3.2" fill="#4a3150"/>
        <circle cx="-5.9" cy="-2.1" r="1.1" fill="white"/>
        <circle cx="7.4" cy="-2.1" r="1.1" fill="white"/>
        <path d="M-5,3.8 Q0,5.0 5,3.8" stroke="#784f70" stroke-width="1.8" fill="none" stroke-linecap="round"/>
      </g>
    </g><text x="120" y="382.7" text-anchor="middle" fill="#f6efff" font-family="system-ui,sans-serif" font-size="12" font-weight="650">skills-communicate-using-mar…</text>
        <text x="120" y="397.7" text-anchor="middle" fill="#ba9db7" font-family="system-ui,sans-serif" font-size="10">Code · 302d ago</text><g transform="translate(245,245)">
      <g>
        <animateTransform attributeName="transform" type="translate" values="0,0; 7,-9; 0,0" dur="6.9s" repeatCount="indefinite"/>
        
        <g>
          <animateTransform attributeName="transform" type="rotate" values="-3 0 0;3 0 0;-3 0 0" dur="6.3s" repeatCount="indefinite"/>
          <path d="M-12.8,8.2 q5.0,10.5 0,21.0" stroke="#3d8fb9" stroke-width="3" fill="none" stroke-linecap="round"/><path d="M-4.2,8.2 q-5.0,10.5 0,21.0" stroke="#3d8fb9" stroke-width="3" fill="none" stroke-linecap="round"/><path d="M4.2,8.2 q5.0,10.5 0,21.0" stroke="#3d8fb9" stroke-width="3" fill="none" stroke-linecap="round"/><path d="M12.8,8.2 q-5.0,10.5 0,21.0" stroke="#3d8fb9" stroke-width="3" fill="none" stroke-linecap="round"/>
        </g>
        <ellipse cx="0" cy="0" rx="23.4" ry="18.2" fill="#91d7ff"/>
        <ellipse cx="0" cy="-3.0" rx="22.2" ry="11.7" fill="#d9f3ff" opacity="0.75"/>
        <circle cx="-6.5" cy="-1.2" r="3.2" fill="#4a3150"/>
        <circle cx="6.5" cy="-1.2" r="3.2" fill="#4a3150"/>
        <circle cx="-5.8" cy="-2.1" r="1.1" fill="white"/>
        <circle cx="7.2" cy="-2.1" r="1.1" fill="white"/>
        <path d="M-5,3.7 Q0,4.9 5,3.7" stroke="#784f70" stroke-width="1.8" fill="none" stroke-linecap="round"/>
      </g>
    </g><text x="245" y="297.4" text-anchor="middle" fill="#eefaff" font-family="system-ui,sans-serif" font-size="12" font-weight="650">Test-Toolchains</text>
        <text x="245" y="312.4" text-anchor="middle" fill="#ba9db7" font-family="system-ui,sans-serif" font-size="10">Jupyter Notebook · 383d ago</text><g transform="translate(24,26)">
      <rect width="252" height="63" rx="14" fill="#0d1020" opacity="0.72"/>
      <text x="15" y="23" fill="#ffd9ec" font-family="system-ui,sans-serif" font-size="12" font-weight="700">🫧 Repo Aquarium</text>
      <text x="15" y="42" fill="#cbb1c8" font-family="system-ui,sans-serif" font-size="10">bigger = more stars · glow = recently active</text>
      <text x="15" y="56" fill="#a88da5" font-family="system-ui,sans-serif" font-size="9">re-generated daily from live GitHub data ✨</text>
    </g></svg>